<?xml version="1.0" encoding="UTF-8" standalone="no"?>
<svg
   xmlns:dc="http://purl.org/dc/elements/1.1/"
   xmlns:cc="http://creativecommons.org/ns#"
   xmlns:rdf="http://www.w3.org/1999/02/22-rdf-syntax-ns#"
   xmlns:svg="http://www.w3.org/2000/svg"
   xmlns="http://www.w3.org/2000/svg"
   xmlns:sodipodi="http://sodipodi.sourceforge.net/DTD/sodipodi-0.dtd"
   xmlns:inkscape="http://www.inkscape.org/namespaces/inkscape"
   sodipodi:docname="bar.svg"
   inkscape:version="1.0beta2 (unknown)"
   id="svg25"
   version="1.1"
   viewBox="0 0 210 297"
   height="297mm"
   width="210mm">
  <defs
     id="defs19" />
  <sodipodi:namedview
     inkscape:window-maximized="1"
     inkscape:window-y="0"
     inkscape:window-x="0"
     inkscape:window-height="656"
     inkscape:window-width="1280"
     showgrid="false"
     inkscape:document-rotation="0"
     inkscape:current-layer="layer1"
     inkscape:document-units="mm"
     inkscape:cy="675.20647"
     inkscape:cx="337.85228"
     inkscape:zoom="0.7"
     inkscape:pageshadow="2"
     inkscape:pageopacity="0.0"
     borderopacity="1.0"
     bordercolor="#666666"
     pagecolor="#ffffff"
     id="base">
    <inkscape:grid
       id="grid78"
       type="xygrid" />
  </sodipodi:namedview>
  <metadata
     id="metadata22">
    <rdf:RDF>
      <cc:Work
         rdf:about="">
        <dc:format>image/svg+xml</dc:format>
        <dc:type
           rdf:resource="http://purl.org/dc/dcmitype/StillImage" />
        <dc:title></dc:title>
      </cc:Work>
    </rdf:RDF>
  </metadata>
  <g
     id="layer1"
     inkscape:groupmode="layer"
     inkscape:label="Layer 1">
    <g
       transform="matrix(2.8950866,0,0,2.8950866,-88.416803,105.03563)"
       id="XMLID_2_">
      <g
         id="g9">
        <path
           inkscape:connector-curvature="0"
           fill="#B9EEEE"
           d="M 84.143,13.589 77.05,14.805 70.872,8.947 V 24.915 L 54.218,4.671 54.249,22.42 H 40.08 c 0.881,-3.393 3.479,-6.086 6.811,-7.105 -0.152,-0.784 -0.229,-1.602 -0.229,-2.438 0,-7.122 5.771,-12.897 12.896,-12.897 4.837,0 9.048,2.662 11.257,6.603 1.247,-0.628 2.654,-0.979 4.147,-0.979 4.678,-0.001 8.555,3.473 9.181,7.985 z"
           id="path7" />
      </g>
    </g>
    <g
       style="fill:#ffaaaa"
       id="g84"
       transform="matrix(2.8950866,0,0,2.8950866,-88.416803,105.03563)">
      <g
         style="fill:#ffaaaa"
         id="g82" />
    </g>
  </g>
</svg>
