<?xml version="1.0" encoding="UTF-8" standalone="no"?>
<svg
   xmlns:dc="http://purl.org/dc/elements/1.1/"
   xmlns:cc="http://creativecommons.org/ns#"
   xmlns:rdf="http://www.w3.org/1999/02/22-rdf-syntax-ns#"
   xmlns:svg="http://www.w3.org/2000/svg"
   xmlns="http://www.w3.org/2000/svg"
   xmlns:sodipodi="http://sodipodi.sourceforge.net/DTD/sodipodi-0.dtd"
   xmlns:inkscape="http://www.inkscape.org/namespaces/inkscape"
   sodipodi:docname="bar.svg"
   inkscape:version="1.0beta2 (unknown)"
   id="svg25"
   version="1.1"
   viewBox="0 0 210 297"
   height="297mm"
   width="210mm">
  <defs
     id="defs19" />
  <sodipodi:namedview
     inkscape:window-maximized="1"
     inkscape:window-y="0"
     inkscape:window-x="0"
     inkscape:window-height="656"
     inkscape:window-width="1280"
     showgrid="false"
     inkscape:document-rotation="0"
     inkscape:current-layer="layer1"
     inkscape:document-units="mm"
     inkscape:cy="675.20647"
     inkscape:cx="337.85228"
     inkscape:zoom="0.7"
     inkscape:pageshadow="2"
     inkscape:pageopacity="0.0"
     borderopacity="1.0"
     bordercolor="#666666"
     pagecolor="#ffffff"
     id="base">
    <inkscape:grid
       id="grid78"
       type="xygrid" />
  </sodipodi:namedview>
  <metadata
     id="metadata22">
    <rdf:RDF>
      <cc:Work
         rdf:about="">
        <dc:format>image/svg+xml</dc:format>
        <dc:type
           rdf:resource="http://purl.org/dc/dcmitype/StillImage" />
        <dc:title></dc:title>
      </cc:Work>
    </rdf:RDF>
  </metadata>
  <g
     id="layer1"
     inkscape:groupmode="layer"
     inkscape:label="Layer 1">
    <g
       transform="matrix(2.8950866,0,0,2.8950866,-88.416803,105.03563)"
       id="XMLID_1_">
      <g
         id="g4">
        <path
           inkscape:connector-curvature="0"
           fill="#00C1C1"
           d="m 86.11,14.933 c 5.052,0.545 8.986,4.816 8.986,10.014 0,2.781 -1.125,5.3 -2.95,7.121 -1.816,1.824 -4.339,2.951 -7.122,2.951 H 48.962 v -0.043 c -5.157,-0.444 -9.2,-4.764 -9.2,-10.029 0,-0.291 0.012,-0.584 0.038,-0.871 H 55.91 L 55.887,9.307 72.533,29.543 V 12.805 l 3.979,3.775 z"
           id="path2" />
      </g>
    </g>
    <g
       transform="matrix(2.8950866,0,0,2.8950866,-88.416803,105.03563)"
       id="XMLID_2_">
      <g
         id="g9">
        <path
           inkscape:connector-curvature="0"
           fill="#B9EEEE"
           d="M 84.143,13.589 77.05,14.805 70.872,8.947 V 24.915 L 54.218,4.671 54.249,22.42 H 40.08 c 0.881,-3.393 3.479,-6.086 6.811,-7.105 -0.152,-0.784 -0.229,-1.602 -0.229,-2.438 0,-7.122 5.771,-12.897 12.896,-12.897 4.837,0 9.048,2.662 11.257,6.603 1.247,-0.628 2.654,-0.979 4.147,-0.979 4.678,-0.001 8.555,3.473 9.181,7.985 z"
           id="path7" />
      </g>
    </g>
    <g
       style="fill:#ffaaaa"
       id="g84"
       transform="matrix(2.8950866,0,0,2.8950866,-88.416803,105.03563)">
      <g
         style="fill:#ffaaaa"
         id="g82" />
    </g>
    <path
       inkscape:connector-curvature="0"
       id="path135"
       d="m 27.618266,169.94347 -0.810622,4.79426 h 46.639844 l -0.06659,-42.75753 48.191612,58.58497 v -48.45796 l 11.51955,10.92895 27.78704,-4.7682 -5.69463,-3.891 -20.53485,3.52043 -17.88585,-16.95942 v 46.22874 l -48.214772,-58.60813 0.08975,51.38489 z"
       style="fill:#ff5555;stroke:none;stroke-width:0.264583px;stroke-linecap:butt;stroke-linejoin:miter;stroke-opacity:1;fill-opacity:1" />
  </g>
</svg>
